<svg width="2111" height="936" viewBox="0 0 2111 936" fill="none" xmlns="http://www.w3.org/2000/svg">
<path d="M251.743 320.773C252.671 320.773 253.598 320.772 254.555 320.772C257.59 320.773 260.625 320.789 263.66 320.805C265.777 320.808 267.895 320.811 270.012 320.813C275.56 320.821 281.108 320.84 286.657 320.863C293.326 320.887 299.996 320.896 306.666 320.908C316.778 320.927 326.889 320.965 337 321C337 348.06 337 375.12 337 403C311.063 403.312 311.063 403.312 302.926 403.388C300.775 403.42 298.624 403.454 296.473 403.488C294.825 403.498 294.825 403.498 293.145 403.507C285.606 403.647 278.069 403.931 272.5 409.5C270.223 413.296 269.874 416.115 269.866 420.459C269.859 422.171 269.859 422.171 269.853 423.918C269.853 425.177 269.853 426.437 269.853 427.735C269.85 429.082 269.846 430.429 269.842 431.776C269.832 435.486 269.828 439.196 269.826 442.906C269.822 446.904 269.812 450.902 269.803 454.9C269.784 464.558 269.774 474.217 269.765 483.875C269.76 488.422 269.755 492.968 269.75 497.514C269.733 512.624 269.718 527.733 269.711 542.842C269.709 546.763 269.707 550.685 269.705 554.606C269.704 556.068 269.704 556.068 269.704 557.56C269.695 573.356 269.67 589.153 269.638 604.95C269.604 621.161 269.586 637.372 269.583 653.584C269.581 662.689 269.572 671.793 269.547 680.898C269.525 688.651 269.517 696.403 269.527 704.155C269.531 708.111 269.529 712.067 269.51 716.023C269.492 719.645 269.493 723.266 269.509 726.888C269.512 728.819 269.496 730.75 269.479 732.681C269.527 739.071 269.616 743.181 274 748C278.366 752.22 283.828 752.124 289.638 752.129C290.743 752.132 291.848 752.135 292.987 752.138C294.19 752.137 295.393 752.135 296.633 752.134C297.92 752.136 299.206 752.138 300.532 752.141C304.096 752.147 307.661 752.147 311.225 752.145C315.072 752.145 318.918 752.151 322.765 752.155C330.299 752.164 337.832 752.166 345.365 752.167C351.488 752.167 357.611 752.17 363.734 752.173C381.095 752.182 398.455 752.186 415.816 752.185C416.751 752.185 417.687 752.185 418.651 752.185C419.588 752.185 420.525 752.185 421.49 752.185C436.678 752.185 451.866 752.194 467.054 752.208C482.649 752.223 498.245 752.23 513.84 752.229C522.596 752.228 531.351 752.231 540.107 752.242C547.56 752.251 555.013 752.253 562.466 752.246C566.269 752.243 570.071 752.243 573.873 752.252C577.996 752.261 582.118 752.255 586.24 752.247C587.441 752.252 588.643 752.257 589.88 752.263C595.662 752.239 600.551 751.974 606 750C606.99 749.67 607.98 749.34 609 749C610.17 746.576 610.17 746.576 611 744C611.33 743.34 611.66 742.68 612 742C612.1 740.214 612.135 738.424 612.14 736.635C612.146 735.49 612.151 734.344 612.157 733.163C612.159 731.259 612.159 731.259 612.161 729.316C612.166 727.963 612.171 726.609 612.176 725.255C612.19 721.522 612.198 717.789 612.204 714.056C612.211 710.857 612.221 707.658 612.231 704.459C612.264 693.919 612.286 683.378 612.304 672.837C612.309 670.093 612.314 667.349 612.319 664.605C612.35 647.573 612.376 630.542 612.393 613.51C612.397 609.563 612.401 605.616 612.405 601.67C612.407 600.198 612.407 600.198 612.408 598.697C612.425 582.804 612.466 566.911 612.517 551.018C612.569 534.708 612.598 518.399 612.605 502.089C612.61 492.929 612.625 483.769 612.665 474.608C612.699 466.807 612.713 459.007 612.701 451.206C612.695 447.225 612.699 443.245 612.729 439.264C612.756 435.619 612.756 431.974 612.733 428.329C612.729 426.388 612.753 424.446 612.779 422.505C612.709 416.002 612.304 411.904 607.593 407.201C601.832 402.857 594.053 403.695 587.19 403.681C585.433 403.666 585.433 403.666 583.64 403.651C579.782 403.62 575.925 403.603 572.067 403.586C569.386 403.567 566.706 403.548 564.025 403.527C557.7 403.481 551.375 403.444 545.05 403.411C537.138 403.368 529.227 403.313 521.315 403.258C507.21 403.159 493.105 403.08 479 403C479 375.94 479 348.88 479 321C518.891 320.879 518.891 320.879 535.645 320.853C547.199 320.836 558.754 320.815 570.308 320.774C578.725 320.744 587.141 320.724 595.557 320.718C600.01 320.714 604.462 320.705 608.915 320.683C613.114 320.662 617.313 320.656 621.512 320.661C623.046 320.66 624.579 320.654 626.112 320.642C644.894 320.507 660.793 325.391 675 338C675.601 338.508 676.202 339.016 676.821 339.539C687.443 349.209 694.036 363.925 696 378C696.09 380.315 696.129 382.632 696.132 384.949C696.134 385.627 696.136 386.306 696.138 387.005C696.144 389.276 696.142 391.548 696.141 393.82C696.143 395.465 696.146 397.111 696.15 398.757C696.158 403.279 696.16 407.801 696.16 412.323C696.162 417.2 696.17 422.078 696.176 426.955C696.19 437.621 696.196 448.286 696.2 458.952C696.203 465.613 696.207 472.275 696.212 478.936C696.224 497.384 696.234 515.832 696.238 534.28C696.238 535.46 696.238 536.641 696.238 537.857C696.239 539.041 696.239 540.224 696.239 541.443C696.24 543.841 696.24 546.239 696.24 548.637C696.241 549.826 696.241 551.016 696.241 552.241C696.245 571.509 696.263 590.776 696.286 610.044C696.31 629.832 696.322 649.62 696.323 669.408C696.324 680.515 696.33 691.623 696.348 702.73C696.363 712.19 696.369 721.65 696.36 731.109C696.356 735.933 696.357 740.757 696.371 745.581C696.384 750.003 696.383 754.425 696.371 758.848C696.369 760.441 696.372 762.035 696.381 763.629C696.444 776.013 695.282 787.888 689.5 799.062C689.158 799.73 688.817 800.398 688.464 801.086C680.192 816.439 665.855 827.419 649.41 832.856C640.789 835.245 632.42 835.425 623.549 835.388C621.907 835.392 620.266 835.397 618.625 835.404C614.143 835.418 609.661 835.414 605.179 835.407C600.335 835.402 595.49 835.415 590.645 835.425C581.165 835.442 571.684 835.443 562.204 835.438C554.495 835.434 546.786 835.435 539.077 835.44C537.429 835.441 537.429 835.441 535.748 835.443C533.516 835.444 531.284 835.446 529.052 835.447C508.135 835.461 487.218 835.456 466.301 835.444C447.184 835.434 428.066 835.447 408.949 835.471C389.299 835.495 369.649 835.505 349.999 835.498C338.975 835.495 327.951 835.497 316.927 835.515C307.543 835.529 298.158 835.53 288.773 835.513C283.989 835.504 279.206 835.502 274.422 835.517C270.034 835.531 265.647 835.526 261.259 835.507C259.681 835.503 258.102 835.506 256.523 835.517C236.555 835.64 219.748 830.06 205.062 816.279C200.439 811.697 197.046 806.723 194 801C193.294 799.691 193.294 799.691 192.574 798.355C186.409 785.933 185.555 772.957 185.613 759.352C185.608 757.714 185.603 756.076 185.596 754.438C185.582 749.974 185.586 745.51 185.593 741.046C185.598 736.217 185.586 731.388 185.575 726.559C185.558 717.113 185.557 707.668 185.563 698.222C185.567 690.541 185.565 682.86 185.56 675.178C185.559 674.083 185.558 672.988 185.558 671.859C185.556 669.634 185.555 667.408 185.553 665.183C185.539 644.337 185.545 623.491 185.556 602.645C185.566 583.597 185.553 564.548 185.529 545.5C185.505 525.914 185.495 506.328 185.502 486.742C185.505 475.757 185.503 464.772 185.486 453.787C185.471 444.435 185.47 435.084 185.488 425.733C185.496 420.968 185.498 416.202 185.483 411.437C185.469 407.065 185.474 402.693 185.493 398.32C185.497 396.748 185.494 395.176 185.484 393.605C185.353 372.549 191.057 354.107 206.16 338.812C218.949 326.904 234.327 320.627 251.743 320.773Z" fill="#486BAA"/>
<path d="M437.091 140.733C438.729 140.729 440.368 140.725 442.007 140.719C446.495 140.707 450.984 140.707 455.472 140.71C460.319 140.71 465.166 140.699 470.013 140.689C479.504 140.673 488.994 140.667 498.485 140.666C506.203 140.665 513.92 140.661 521.638 140.655C543.533 140.637 565.428 140.628 587.323 140.63C589.093 140.63 589.093 140.63 590.899 140.63C592.08 140.63 593.261 140.63 594.478 140.63C613.615 140.631 632.751 140.612 651.888 140.583C671.552 140.555 691.215 140.541 710.879 140.543C721.913 140.543 732.947 140.538 743.981 140.516C753.377 140.498 762.772 140.494 772.168 140.507C776.958 140.514 781.748 140.514 786.537 140.497C790.931 140.481 795.324 140.484 799.717 140.501C801.298 140.504 802.879 140.501 804.459 140.489C823.612 140.363 839.29 145.364 854 158C854.604 158.51 855.209 159.019 855.832 159.543C866.438 169.24 873.034 183.913 875 198C875.09 200.319 875.13 202.639 875.134 204.959C875.136 205.639 875.139 206.318 875.141 207.018C875.148 209.294 875.147 211.569 875.147 213.844C875.15 215.493 875.154 217.142 875.158 218.79C875.168 223.32 875.172 227.849 875.174 232.379C875.178 237.264 875.188 242.15 875.197 247.036C875.216 258.835 875.226 270.634 875.235 282.433C875.24 287.992 875.245 293.551 875.25 299.111C875.267 317.596 875.282 336.082 875.289 354.568C875.291 359.363 875.293 364.159 875.295 368.955C875.295 370.147 875.296 371.339 875.296 372.567C875.305 391.868 875.33 411.17 875.362 430.472C875.395 450.298 875.413 470.124 875.417 489.951C875.419 501.079 875.428 512.206 875.453 523.334C875.475 532.813 875.483 542.291 875.473 551.769C875.469 556.601 875.47 561.433 875.49 566.266C875.508 570.698 875.507 575.13 875.491 579.562C875.489 581.157 875.493 582.752 875.505 584.347C875.639 603.54 870.816 620.527 857.329 634.818C843.96 648.343 827.928 655.172 809.008 655.341C805.094 655.352 801.18 655.324 797.265 655.293C795.175 655.288 793.085 655.284 790.994 655.281C785.53 655.269 780.065 655.24 774.601 655.206C768.024 655.17 761.448 655.157 754.871 655.139C744.914 655.11 734.957 655.053 725 655C725 627.94 725 600.88 725 573C751.062 572.625 751.062 572.625 759.254 572.522C761.41 572.487 763.566 572.451 765.722 572.414C766.831 572.403 767.939 572.392 769.082 572.38C778.474 572.433 778.474 572.433 786.742 568.563C789.944 564.146 791.124 562.052 791.139 556.636C791.145 555.49 791.151 554.344 791.157 553.164C791.158 551.26 791.158 551.26 791.16 549.317C791.165 547.963 791.17 546.609 791.176 545.255C791.19 541.522 791.197 537.789 791.204 534.056C791.21 530.857 791.22 527.659 791.23 524.46C791.264 513.919 791.285 503.378 791.303 492.838C791.308 490.094 791.313 487.35 791.318 484.606C791.349 467.574 791.376 450.542 791.393 433.51C791.397 429.563 791.401 425.617 791.405 421.67C791.406 420.199 791.406 420.199 791.408 418.697C791.425 402.804 791.466 386.911 791.517 371.018C791.568 354.709 791.598 338.399 791.605 322.09C791.609 312.929 791.624 303.769 791.665 294.609C791.699 286.808 791.713 279.007 791.7 271.206C791.694 267.225 791.698 263.245 791.728 259.264C791.756 255.619 791.755 251.975 791.733 248.329C791.728 246.388 791.753 244.447 791.779 242.506C791.712 235.154 791.712 235.154 788.392 228.793C781.98 222.751 773.51 223.714 765.26 223.74C763.974 223.736 762.688 223.732 761.363 223.728C757.805 223.718 754.246 223.72 750.688 223.724C746.846 223.727 743.004 223.718 739.162 223.71C731.64 223.697 724.117 223.696 716.595 223.698C710.479 223.7 704.364 223.698 698.249 223.694C697.378 223.693 696.507 223.693 695.61 223.692C693.841 223.691 692.072 223.69 690.304 223.688C673.718 223.677 657.133 223.68 640.548 223.686C625.381 223.691 610.214 223.68 595.046 223.661C579.467 223.641 563.887 223.633 548.307 223.637C539.563 223.639 530.818 223.636 522.074 223.622C514.63 223.61 507.185 223.609 499.741 223.621C495.945 223.627 492.148 223.628 488.352 223.616C484.232 223.603 480.113 223.613 475.993 223.626C474.799 223.619 473.604 223.611 472.373 223.604C465.882 223.646 459.88 224.009 454 227C450.006 231.094 448.875 233.728 448.868 239.337C448.862 241.046 448.862 241.046 448.857 242.789C448.857 244.052 448.858 245.314 448.859 246.615C448.857 247.961 448.854 249.307 448.85 250.653C448.842 254.366 448.84 258.078 448.84 261.79C448.838 265.789 448.83 269.788 448.823 273.786C448.81 282.536 448.804 291.286 448.799 300.036C448.797 305.498 448.792 310.959 448.788 316.42C448.776 331.533 448.765 346.647 448.762 361.76C448.762 362.728 448.762 363.696 448.761 364.693C448.761 365.663 448.761 366.633 448.761 367.633C448.76 369.599 448.76 371.565 448.759 373.531C448.759 374.506 448.759 375.482 448.759 376.486C448.755 392.29 448.737 408.093 448.714 423.896C448.69 440.112 448.678 456.328 448.677 472.543C448.676 481.652 448.67 490.76 448.652 499.868C448.637 507.624 448.631 515.38 448.64 523.136C448.644 527.094 448.643 531.052 448.629 535.01C448.616 538.634 448.617 542.257 448.629 545.88C448.632 547.812 448.62 549.745 448.608 551.677C448.647 558.541 449.18 563.053 453.25 568.75C459.189 572.993 466.959 572.306 473.902 572.319C475.083 572.329 476.264 572.339 477.481 572.35C480.702 572.375 483.922 572.392 487.143 572.405C490.515 572.421 493.888 572.448 497.261 572.473C503.639 572.52 510.017 572.557 516.395 572.59C524.373 572.632 532.352 572.687 540.33 572.743C554.553 572.841 568.776 572.92 583 573C583 600.06 583 627.12 583 655C542.938 655.162 542.938 655.162 526.097 655.196C514.488 655.219 502.879 655.247 491.27 655.302C482.813 655.342 474.357 655.368 465.9 655.377C461.427 655.382 456.955 655.394 452.482 655.423C448.261 655.451 444.041 655.459 439.82 655.453C438.281 655.454 436.742 655.462 435.203 655.477C414.871 655.672 397.884 649.22 383.105 635.203C371.443 622.883 364.891 605.993 364.865 589.125C364.863 588.455 364.861 587.784 364.858 587.094C364.852 584.849 364.852 582.604 364.852 580.36C364.849 578.733 364.845 577.107 364.841 575.48C364.831 571.011 364.828 566.543 364.825 562.074C364.821 557.254 364.811 552.434 364.803 547.613C364.783 535.972 364.773 524.33 364.764 512.688C364.76 507.202 364.754 501.715 364.749 496.229C364.732 477.983 364.718 459.738 364.71 441.492C364.708 436.759 364.706 432.026 364.704 427.292C364.704 426.116 364.704 424.939 364.703 423.727C364.695 404.682 364.669 385.637 364.637 366.592C364.604 347.026 364.586 327.459 364.583 307.893C364.58 296.913 364.572 285.932 364.546 274.952C364.524 265.598 364.516 256.244 364.526 246.89C364.531 242.122 364.529 237.354 364.509 232.587C364.492 228.211 364.493 223.836 364.508 219.46C364.511 217.888 364.506 216.316 364.494 214.743C364.345 193.841 369.34 174.832 384.238 159.5C399.953 145.275 416.343 140.688 437.091 140.733Z" fill="#485B7E"/>
<path d="M1298 261C1425.03 261 1425.03 261 1447.41 282.059C1458.45 294.593 1459.8 309.793 1459.15 325.781C1458.31 338.398 1452.74 350.468 1443.51 359.09C1438.31 363.049 1432.36 365.576 1426 367C1426.98 367.364 1427.96 367.727 1428.96 368.102C1442.22 373.136 1453.15 378.831 1459.75 392.062C1466.86 409.042 1467.23 428.551 1460.56 445.707C1452.62 462.712 1439.34 473.504 1422 480C1383.41 492.862 1334.11 486 1298 486C1298 411.75 1298 337.5 1298 261ZM1346 301C1346 317.17 1346 333.34 1346 350C1350.99 350.041 1355.98 350.082 1361.12 350.125C1362.67 350.143 1364.21 350.161 1365.8 350.18C1386.1 350.315 1386.1 350.315 1403.88 341.625C1409.11 335.154 1410.36 328.814 1409.86 320.637C1408.87 314.373 1405.98 309.908 1401 306C1392.84 301.96 1384.95 300.846 1375.98 300.902C1375.22 300.903 1374.46 300.904 1373.67 300.905C1370.84 300.911 1368.02 300.925 1365.19 300.938C1355.69 300.968 1355.69 300.968 1346 301ZM1346 388C1346 407.14 1346 426.28 1346 446C1353.27 446.031 1353.27 446.031 1360.69 446.062C1362.19 446.072 1363.69 446.081 1365.23 446.09C1388.53 446.627 1388.53 446.627 1408.38 435.973C1414.14 428.96 1415.5 420.503 1414.82 411.617C1413.67 404.82 1410.45 398.799 1405.06 394.43C1392.8 386.902 1378.5 387.616 1364.69 387.812C1358.52 387.874 1352.35 387.936 1346 388Z" fill="#486E9A"/>
<path d="M1558.5 579.305C1576.16 595.179 1586.02 616.784 1590 640C1590.17 641.008 1590.17 641.008 1590.35 642.037C1595.95 676.761 1592.89 717.427 1572.92 747.406C1569.59 751.906 1565.86 755.955 1562 760C1561.48 760.603 1560.97 761.206 1560.43 761.828C1545.96 778.001 1520.97 785.495 1500 787C1478.81 787.709 1459.12 787.171 1439 780C1437.94 779.63 1436.88 779.26 1435.78 778.879C1413.14 770.269 1397.69 751.748 1387.69 730.312C1373.51 695.092 1373.18 649.394 1387 614C1391.31 604.079 1396.66 594.983 1404 587C1404.8 586.099 1405.6 585.198 1406.42 584.269C1442.43 545.699 1519.58 545.471 1558.5 579.305ZM1447.44 609.488C1443.47 613.581 1440.63 617.958 1438 623C1437.54 623.879 1437.08 624.758 1436.61 625.664C1425.11 650.331 1425.33 685.32 1433.81 710.875C1439.35 724.69 1446.53 735.125 1460 742C1475.72 748.451 1493.54 748.713 1509.38 742.312C1522.27 735.855 1531.25 725.574 1536 712C1539.95 698.877 1541.24 686.289 1541.25 672.625C1541.25 671.912 1541.25 671.198 1541.25 670.463C1541.22 649.246 1538.84 627.228 1523.97 610.754C1516.64 603.739 1507.11 598.491 1497 597C1495.72 596.801 1495.72 596.801 1494.41 596.598C1477.48 594.573 1460.43 598.063 1447.44 609.488Z" fill="#486B94"/>
<path d="M1662 269C1662.95 269.478 1663.9 269.956 1664.87 270.449C1678.21 277.614 1688.36 287.992 1696 301C1696.35 301.592 1696.7 302.185 1697.06 302.795C1716.42 336.518 1717.13 381.253 1707.41 418.121C1700.49 442.772 1685.55 463.054 1663.38 476.184C1635.56 491.14 1598.2 492.935 1568.17 484.255C1543.23 476.342 1523.46 461.242 1511.23 437.938C1508.52 432.483 1506.41 426.945 1504.63 421.125C1504.4 420.397 1504.17 419.669 1503.94 418.918C1499.85 404.55 1498.49 389.829 1498.61 374.948C1498.63 372.5 1498.61 370.053 1498.59 367.605C1498.55 336.884 1506.38 306.674 1528.38 284.25C1561.3 252.452 1622.1 247.599 1662 269ZM1564.02 315.215C1546.97 337.837 1546.9 369.902 1550.65 396.744C1552.94 411.342 1558.38 427.205 1570 437C1583.73 446.739 1599.4 450.047 1616.09 447.707C1625.5 446.075 1633.43 442.953 1641 437C1641.96 436.267 1641.96 436.267 1642.95 435.519C1656.03 424.109 1660.46 403.588 1661.86 387.198C1663.44 362.566 1662.49 333.271 1645.69 313.625C1636.53 304.09 1624.9 298.241 1611.56 297.797C1592.76 297.511 1577.08 300.61 1564.02 315.215Z" fill="#475F7B"/>
<path d="M1118.12 565.501C1119 565.785 1119.87 566.069 1120.77 566.363C1121.97 566.787 1121.97 566.787 1123.2 567.219C1123.91 567.466 1124.62 567.713 1125.35 567.967C1127 569.001 1127 569.001 1127.68 570.83C1128.23 574.598 1126.29 577.87 1124.82 581.266C1124.31 582.456 1124.31 582.456 1123.8 583.67C1122.73 586.202 1121.65 588.726 1120.56 591.251C1119.83 592.966 1119.11 594.682 1118.38 596.399C1116.6 600.605 1114.8 604.804 1113 609.001C1111.59 608.533 1110.18 608.065 1108.77 607.596C1107.99 607.336 1107.21 607.075 1106.4 606.807C1104.13 606.043 1101.87 605.26 1099.61 604.465C1076.2 596.306 1051.87 594.247 1028.75 604.626C1014.06 612.552 1004.39 626.076 998.996 641.633C991.846 665.801 992.296 694.869 1003 718.001C1009.97 730.685 1019.12 739.399 1032.93 743.969C1048.78 748.233 1064.87 745.537 1081 744.001C1081 728.821 1081 713.641 1081 698.001C1067.14 698.001 1053.28 698.001 1039 698.001C1039 684.801 1039 671.601 1039 658.001C1068.7 658.001 1098.4 658.001 1129 658.001C1129 696.611 1129 735.221 1129 775.001C1105.69 781.994 1105.69 781.994 1098.5 783.251C1097.63 783.406 1096.76 783.562 1095.87 783.722C1093.25 784.174 1090.63 784.596 1088 785.001C1086.85 785.178 1086.85 785.178 1085.68 785.36C1074.04 787.055 1062.36 787.202 1050.62 787.251C1049.9 787.256 1049.19 787.261 1048.44 787.267C1019.3 787.431 993.85 779.972 972.375 759.938C947.749 734.39 943.257 697.672 943.75 663.797C943.994 655.009 945.023 646.563 947 638.001C947.166 637.279 947.332 636.557 947.504 635.813C951.406 619.624 958.497 605.892 969 593.001C970.059 591.599 970.059 591.599 971.14 590.169C971.754 589.453 972.368 588.738 973 588.001C973.66 588.001 974.32 588.001 975 588.001C975.212 587.439 975.425 586.876 975.644 586.297C977.449 583.24 979.897 581.358 982.687 579.251C983.263 578.815 983.839 578.38 984.433 577.931C1022.26 550.099 1075.25 551.115 1118.12 565.501Z" fill="#4984CA"/>
<path d="M1181 560C1299.05 560 1299.05 560 1320.23 580.07C1333.16 594.173 1337.06 611.371 1337 630C1336.06 646.839 1328.87 662.119 1316.67 673.793C1310.38 678.988 1303.32 683.411 1296 687C1296.65 687.936 1297.29 688.872 1297.96 689.836C1305.29 700.471 1312.53 711.163 1319.75 721.875C1322.12 725.392 1324.49 728.909 1326.86 732.426C1327.46 733.306 1328.05 734.187 1328.66 735.094C1332.67 741.042 1336.7 746.983 1340.73 752.918C1341.79 754.477 1342.85 756.037 1343.91 757.596C1345.41 759.807 1346.91 762.017 1348.41 764.226C1349.79 766.244 1351.16 768.264 1352.53 770.285C1352.92 770.866 1353.32 771.446 1353.73 772.044C1356.36 775.931 1358.71 779.906 1361 784C1353.51 784.433 1346.03 784.73 1338.53 784.934C1335.99 785.019 1333.44 785.135 1330.9 785.282C1310.43 786.441 1310.43 786.441 1304.84 782.466C1301.22 778.547 1299.02 774.034 1296.95 769.154C1295.63 766.171 1293.9 763.539 1292.1 760.828C1290.94 758.97 1289.78 757.11 1288.62 755.25C1287.68 753.731 1287.68 753.731 1286.71 752.182C1282.08 744.747 1277.47 737.295 1272.87 729.836C1269.98 725.155 1267.05 720.502 1264.08 715.871C1263.43 714.859 1262.78 713.848 1262.11 712.805C1260.85 710.844 1259.59 708.885 1258.32 706.929C1257.47 705.613 1257.47 705.613 1256.61 704.27C1256.1 703.492 1255.6 702.714 1255.08 701.913C1254 700 1254 700 1254 698C1245.75 698 1237.5 698 1229 698C1229 726.38 1229 754.76 1229 784C1213.16 784 1197.32 784 1181 784C1181 710.08 1181 636.16 1181 560ZM1229 599C1229 618.8 1229 638.6 1229 659C1256.47 660.124 1256.47 660.124 1281 649C1285.98 643.439 1288.08 635.163 1288.44 627.812C1287.4 618.812 1285.06 611.994 1278 606C1264.6 596.797 1243.5 599 1229 599Z" fill="#4878AF"/>
<path d="M1636 560C1651.84 560 1667.68 560 1684 560C1684.01 564.309 1684.03 568.617 1684.04 573.057C1684.09 587.334 1684.16 601.611 1684.24 615.888C1684.28 624.539 1684.32 633.191 1684.35 641.842C1684.37 649.39 1684.4 656.937 1684.45 664.485C1684.47 668.475 1684.49 672.465 1684.5 676.455C1684.5 680.224 1684.52 683.993 1684.55 687.762C1684.57 689.777 1684.57 691.792 1684.56 693.807C1684.69 706.385 1686.21 718.693 1692 730C1692.35 730.99 1692.7 731.98 1693.06 733C1693.37 733.66 1693.68 734.32 1694 735C1694.99 735.33 1695.98 735.66 1697 736C1697 736.66 1697 737.32 1697 738C1697.96 738.371 1697.96 738.371 1698.94 738.75C1700.63 739.44 1702.31 740.152 1703.95 740.953C1717.68 747.559 1733.22 747.591 1747.66 743.188C1758.23 739.357 1762.61 733.678 1767.52 723.828C1771.39 714.609 1771.3 704.938 1771.32 695.095C1771.33 693.616 1771.34 692.137 1771.35 690.657C1771.38 686.67 1771.39 682.684 1771.41 678.697C1771.42 674.519 1771.45 670.342 1771.47 666.165C1771.52 658.267 1771.56 650.37 1771.59 642.472C1771.63 633.476 1771.68 624.48 1771.73 615.483C1771.83 596.989 1771.92 578.494 1772 560C1788.17 560 1804.34 560 1821 560C1821.05 578.856 1821.08 597.711 1821.1 616.567C1821.11 625.323 1821.13 634.08 1821.15 642.837C1821.17 650.477 1821.18 658.118 1821.19 665.759C1821.19 669.797 1821.2 673.835 1821.21 677.873C1821.43 740.301 1821.43 740.301 1798 764C1778.35 781.64 1753.81 787.227 1728.06 787.25C1727.03 787.251 1727.03 787.251 1725.97 787.252C1699.32 787.211 1675.21 780.971 1655.74 761.773C1639.73 744.546 1635.48 722.663 1635.66 699.863C1635.66 698.324 1635.66 696.785 1635.66 695.245C1635.66 691.122 1635.68 687 1635.7 682.877C1635.72 678.547 1635.72 674.218 1635.72 669.888C1635.73 661.715 1635.75 653.541 1635.78 645.368C1635.82 636.052 1635.83 626.736 1635.85 617.421C1635.88 598.28 1635.94 579.14 1636 560Z" fill="#475E78"/>
<path d="M1874 560C1992.17 560 1992.17 560 2012.88 580.312C2026.94 595.248 2030.49 613.951 2030.21 633.941C2029.62 653.063 2023.6 670.559 2009.73 684.242C1985.01 705.345 1954.04 705 1923 705C1923 731.07 1923 757.14 1923 784C1906.83 784 1890.66 784 1874 784C1874 710.08 1874 636.16 1874 560ZM1923 599C1923 620.78 1923 642.56 1923 665C1949.37 666.087 1949.37 666.087 1972.17 655.18C1978.74 648.26 1981.21 640.957 1981.44 631.5C1981.1 621.332 1979.44 614.343 1972.23 606.91C1959.22 595.748 1938.28 599 1923 599Z" fill="#47515D"/>
<path d="M944 261C960.17 261 976.34 261 993 261C1001.59 286.329 1009.7 311.789 1017.63 337.331C1018.27 339.414 1018.92 341.497 1019.57 343.58C1019.99 344.948 1020.42 346.316 1020.84 347.684C1023.39 355.894 1025.98 364.093 1028.64 372.269C1035.46 393.302 1041.07 414.441 1046 436C1047.95 428.713 1049.9 421.425 1051.78 414.119C1056.46 396.052 1061.86 378.288 1067.61 360.535C1068.81 356.835 1070 353.133 1071.19 349.43C1071.68 347.911 1072.16 346.392 1072.65 344.873C1072.89 344.117 1073.14 343.361 1073.39 342.583C1074.12 340.29 1074.86 337.998 1075.6 335.706C1078.98 325.218 1082.31 314.719 1085.62 304.211C1086.07 302.794 1086.52 301.378 1086.97 299.961C1088.67 294.567 1090.37 289.172 1092.06 283.776C1093.21 280.115 1094.36 276.456 1095.52 272.797C1095.86 271.708 1096.2 270.62 1096.55 269.499C1096.86 268.518 1097.17 267.537 1097.49 266.526C1097.76 265.67 1098.03 264.815 1098.31 263.933C1099 262 1099 262 1100 261C1101.53 260.906 1103.07 260.882 1104.61 260.886C1105.59 260.886 1106.57 260.886 1107.58 260.886C1108.65 260.892 1109.72 260.897 1110.82 260.902C1112.45 260.904 1112.45 260.904 1114.11 260.906C1117.59 260.912 1121.08 260.924 1124.56 260.937C1126.92 260.942 1129.27 260.947 1131.63 260.951C1137.42 260.962 1143.21 260.979 1149 261C1142.85 280.191 1136.6 299.338 1130.05 318.397C1123.59 337.219 1117.23 356.076 1110.87 374.934C1098.36 411.998 1085.78 449.029 1073 486C1055.51 486 1038.02 486 1020 486C1013.2 466.797 1006.47 447.587 1000.06 428.25C995.642 414.916 991.181 401.6 986.625 388.312C982.109 375.138 977.625 361.952 973.168 348.757C972.779 347.607 972.779 347.607 972.383 346.433C969.765 338.685 967.149 330.937 964.536 323.187C963.546 320.254 962.556 317.32 961.565 314.387C961.078 312.944 960.592 311.502 960.105 310.059C957.369 301.952 954.611 293.852 951.814 285.766C951.556 285.019 951.298 284.272 951.032 283.502C949.795 279.925 948.556 276.349 947.31 272.775C946.87 271.506 946.431 270.236 945.991 268.967C945.605 267.859 945.22 266.751 944.822 265.61C944 263 944 263 944 261Z" fill="#4982C4"/>
<path d="M1890 273C1889.33 277.343 1887.81 281.183 1886.09 285.199C1885.67 286.213 1885.67 286.213 1885.23 287.248C1884.33 289.397 1883.41 291.542 1882.5 293.687C1881.89 295.141 1881.27 296.595 1880.66 298.049C1876.23 308.544 1876.23 308.544 1875 311C1871.4 310.351 1868.04 309.413 1864.58 308.222C1863.55 307.874 1862.53 307.525 1861.47 307.166C1859.34 306.435 1857.21 305.704 1855.08 304.971C1839.95 299.838 1820.8 294.898 1805.58 302.152C1800.5 305.147 1797.61 308.132 1795.59 313.711C1793.98 319.948 1794.66 324.95 1797.59 330.715C1802.52 338.719 1811.45 342.651 1819.56 346.687C1820.76 347.293 1821.95 347.9 1823.14 348.508C1825.57 349.746 1828 350.979 1830.44 352.205C1859.51 366.853 1859.51 366.853 1868 374C1868.87 374.705 1869.73 375.41 1870.62 376.137C1879.4 383.614 1885.51 391.961 1889 403C1889.23 403.709 1889.45 404.418 1889.68 405.148C1893.84 421.498 1891.67 440.376 1883.8 455.148C1880.75 459.985 1877.06 463.993 1873 468C1872.39 468.637 1871.77 469.273 1871.14 469.93C1856.33 484.193 1833.72 487.951 1814 489C1813 489.054 1812 489.108 1810.98 489.164C1788.92 489.751 1764.9 485.837 1745 476C1744 475 1744 475 1743.88 473.171C1743.88 472.374 1743.88 471.577 1743.89 470.755C1743.89 469.855 1743.89 468.954 1743.89 468.026C1743.89 467.046 1743.9 466.067 1743.9 465.058C1743.9 464.061 1743.91 463.064 1743.91 462.036C1743.91 458.836 1743.92 455.637 1743.94 452.437C1743.94 450.274 1743.95 448.11 1743.95 445.947C1743.96 440.631 1743.98 435.316 1744 430C1759.63 435.837 1759.63 435.837 1765.05 437.976C1784.65 445.628 1809.95 452.844 1830.55 445.031C1836.19 442.296 1839.65 438.833 1842 433C1843.84 426.534 1842.96 420.979 1840 415C1833.27 403.395 1817.41 397.599 1805.82 392.254C1782.37 381.396 1760.81 368.713 1750 344C1744.12 327.682 1745.69 308.752 1752.29 292.914C1759.98 277.611 1773.61 267.521 1789.57 261.996C1823.59 252.105 1858.21 259.416 1890 273Z" fill="#475260"/>
<path d="M1158 261C1191.99 261 1225.98 261 1261 261C1261 270.24 1261 279.48 1261 289C1257.34 290.713 1253.67 292.423 1250 294.127C1248.75 294.708 1247.51 295.29 1246.26 295.873C1244.47 296.711 1242.68 297.543 1240.88 298.375C1239.8 298.878 1238.73 299.38 1237.61 299.898C1235 301 1235 301 1233 301C1233.33 348.52 1233.66 396.04 1234 445C1242.58 448.96 1251.16 452.92 1260 457C1266.84 463.839 1261 476.328 1261 486C1227.01 486 1193.02 486 1158 486C1158 476.76 1158 467.52 1158 458C1181.8 446 1181.8 446 1185 446C1184.67 398.15 1184.34 350.3 1184 301C1175.42 297.04 1166.84 293.08 1158 289C1158 279.76 1158 270.52 1158 261Z" fill="#4878B0"/>
</svg>
